<mxfile host="drawio-plugin" modified="2021-07-16T06:14:11.426Z" agent="5.0 (Macintosh; Intel Mac OS X 11_4_0) AppleWebKit/537.36 (KHTML, like Gecko) Chrome/87.0.4280.141 Safari/537.36" version="14.7.4" etag="i1XjfUqaIrPMcFfDuzol" type="embed"><diagram id="E79xJmutIVgFRVQd2meY" name="Page-1"><mxGraphModel dx="1053" dy="766" grid="1" gridSize="10" guides="1" tooltips="1" connect="1" arrows="1" fold="1" page="1" pageScale="1" pageWidth="850" pageHeight="1100" math="0" shadow="0"><root><mxCell id="0"/><mxCell id="1" parent="0"/><mxCell id="2" value="client" style="rounded=0;whiteSpace=wrap;html=1;" vertex="1" parent="1"><mxGeometry x="170" y="70" width="120" height="60" as="geometry"/></mxCell><mxCell id="5" value="" style="edgeStyle=orthogonalEdgeStyle;rounded=0;orthogonalLoop=1;jettySize=auto;html=1;" edge="1" parent="1" source="3" target="4"><mxGeometry relative="1" as="geometry"/></mxCell><mxCell id="3" value="nuxt" style="rounded=0;whiteSpace=wrap;html=1;" vertex="1" parent="1"><mxGeometry x="320" y="180" width="120" height="60" as="geometry"/></mxCell><mxCell id="4" value="firebase&lt;br&gt;hosting" style="rounded=0;whiteSpace=wrap;html=1;" vertex="1" parent="1"><mxGeometry x="510" y="180" width="120" height="60" as="geometry"/></mxCell><mxCell id="6" value="server" style="rounded=0;whiteSpace=wrap;html=1;" vertex="1" parent="1"><mxGeometry x="170" y="280" width="120" height="60" as="geometry"/></mxCell><mxCell id="7" value="DB" style="rounded=0;whiteSpace=wrap;html=1;" vertex="1" parent="1"><mxGeometry x="170" y="510" width="120" height="60" as="geometry"/></mxCell><mxCell id="8" value="node" style="rounded=0;whiteSpace=wrap;html=1;" vertex="1" parent="1"><mxGeometry x="320" y="370" width="120" height="60" as="geometry"/></mxCell><mxCell id="9" value="mongoDB" style="rounded=0;whiteSpace=wrap;html=1;" vertex="1" parent="1"><mxGeometry x="310" y="580" width="120" height="60" as="geometry"/></mxCell><mxCell id="14" value="" style="edgeStyle=orthogonalEdgeStyle;rounded=0;orthogonalLoop=1;jettySize=auto;html=1;" edge="1" parent="1" source="13" target="3"><mxGeometry relative="1" as="geometry"/></mxCell><mxCell id="13" value="vuetify" style="rounded=0;whiteSpace=wrap;html=1;" vertex="1" parent="1"><mxGeometry x="320" y="50" width="120" height="60" as="geometry"/></mxCell></root></mxGraphModel></diagram></mxfile>